G75*
%MOIN*%
%OFA0B0*%
%FSLAX25Y25*%
%IPPOS*%
%LPD*%
%AMOC8*
5,1,8,0,0,1.08239X$1,22.5*
%
%ADD10C,0.00000*%
%ADD11C,0.00512*%
%ADD12C,0.00600*%
D10*
X0078342Y0001492D02*
X0078342Y0146453D01*
X0222043Y0146453D01*
X0222043Y0001492D01*
X0078342Y0001492D01*
D11*
X0005665Y0001492D01*
X0013342Y0001748D02*
X0014365Y0011728D01*
X0014599Y0011728D02*
X0013342Y0001748D01*
X0012318Y0011728D01*
X0012085Y0011728D02*
X0014599Y0011728D01*
X0013854Y0011728D02*
X0013342Y0001748D01*
X0012830Y0011728D01*
X0012085Y0011728D02*
X0013342Y0001748D01*
X0013342Y0146197D01*
X0014365Y0136217D01*
X0014599Y0136217D02*
X0013342Y0146197D01*
X0012318Y0136217D01*
X0012085Y0136217D02*
X0014599Y0136217D01*
X0013854Y0136217D02*
X0013342Y0146197D01*
X0012830Y0136217D01*
X0012085Y0136217D02*
X0013342Y0146197D01*
X0005665Y0146453D02*
X0078342Y0146453D01*
X0078325Y0209131D01*
X0078583Y0201454D02*
X0088563Y0202481D01*
X0088563Y0202714D02*
X0088563Y0200200D01*
X0078583Y0201454D01*
X0088563Y0200433D01*
X0088563Y0200945D02*
X0078583Y0201454D01*
X0088563Y0201969D01*
X0088563Y0202714D02*
X0078583Y0201454D01*
X0223071Y0201493D01*
X0213091Y0200467D01*
X0213091Y0200234D02*
X0223071Y0201493D01*
X0213090Y0202514D01*
X0213090Y0202748D02*
X0213091Y0200234D01*
X0213091Y0200979D02*
X0223071Y0201493D01*
X0213091Y0202003D01*
X0213090Y0202748D02*
X0223071Y0201493D01*
X0223325Y0209171D02*
X0223342Y0146492D01*
D12*
X0161265Y0204032D02*
X0159487Y0204032D01*
X0161265Y0204032D02*
X0161348Y0204034D01*
X0161431Y0204040D01*
X0161514Y0204050D01*
X0161597Y0204063D01*
X0161678Y0204081D01*
X0161759Y0204102D01*
X0161838Y0204127D01*
X0161916Y0204156D01*
X0161993Y0204188D01*
X0162068Y0204224D01*
X0162142Y0204263D01*
X0162213Y0204306D01*
X0162283Y0204352D01*
X0162350Y0204402D01*
X0162415Y0204454D01*
X0162477Y0204509D01*
X0162537Y0204568D01*
X0162594Y0204629D01*
X0162648Y0204692D01*
X0162699Y0204758D01*
X0162746Y0204827D01*
X0162791Y0204897D01*
X0162832Y0204970D01*
X0162869Y0205044D01*
X0162904Y0205120D01*
X0162934Y0205198D01*
X0162961Y0205276D01*
X0162984Y0205357D01*
X0163004Y0205438D01*
X0163019Y0205520D01*
X0163031Y0205602D01*
X0163039Y0205685D01*
X0163043Y0205768D01*
X0163043Y0205852D01*
X0163039Y0205935D01*
X0163031Y0206018D01*
X0163019Y0206100D01*
X0163004Y0206182D01*
X0162984Y0206263D01*
X0162961Y0206344D01*
X0162934Y0206422D01*
X0162904Y0206500D01*
X0162869Y0206576D01*
X0162832Y0206650D01*
X0162791Y0206723D01*
X0162746Y0206793D01*
X0162699Y0206862D01*
X0162648Y0206928D01*
X0162594Y0206991D01*
X0162537Y0207052D01*
X0162477Y0207111D01*
X0162415Y0207166D01*
X0162350Y0207218D01*
X0162283Y0207268D01*
X0162213Y0207314D01*
X0162142Y0207357D01*
X0162068Y0207396D01*
X0161993Y0207432D01*
X0161916Y0207464D01*
X0161838Y0207493D01*
X0161759Y0207518D01*
X0161678Y0207539D01*
X0161597Y0207557D01*
X0161514Y0207570D01*
X0161431Y0207580D01*
X0161348Y0207586D01*
X0161265Y0207588D01*
X0161620Y0207588D02*
X0160198Y0207588D01*
X0161620Y0207588D02*
X0161694Y0207590D01*
X0161769Y0207596D01*
X0161842Y0207606D01*
X0161916Y0207619D01*
X0161988Y0207636D01*
X0162059Y0207658D01*
X0162130Y0207682D01*
X0162198Y0207711D01*
X0162266Y0207743D01*
X0162331Y0207779D01*
X0162394Y0207817D01*
X0162456Y0207860D01*
X0162515Y0207905D01*
X0162572Y0207953D01*
X0162626Y0208004D01*
X0162677Y0208058D01*
X0162725Y0208115D01*
X0162770Y0208174D01*
X0162813Y0208236D01*
X0162851Y0208299D01*
X0162887Y0208364D01*
X0162919Y0208432D01*
X0162948Y0208500D01*
X0162972Y0208571D01*
X0162994Y0208642D01*
X0163011Y0208714D01*
X0163024Y0208788D01*
X0163034Y0208861D01*
X0163040Y0208936D01*
X0163042Y0209010D01*
X0163040Y0209084D01*
X0163034Y0209159D01*
X0163024Y0209232D01*
X0163011Y0209306D01*
X0162994Y0209378D01*
X0162972Y0209449D01*
X0162948Y0209520D01*
X0162919Y0209588D01*
X0162887Y0209656D01*
X0162851Y0209721D01*
X0162813Y0209784D01*
X0162770Y0209846D01*
X0162725Y0209905D01*
X0162677Y0209962D01*
X0162626Y0210016D01*
X0162572Y0210067D01*
X0162515Y0210115D01*
X0162456Y0210160D01*
X0162394Y0210203D01*
X0162331Y0210241D01*
X0162266Y0210277D01*
X0162198Y0210309D01*
X0162130Y0210338D01*
X0162059Y0210362D01*
X0161988Y0210384D01*
X0161916Y0210401D01*
X0161842Y0210414D01*
X0161769Y0210424D01*
X0161694Y0210430D01*
X0161620Y0210432D01*
X0159487Y0210432D01*
X0156533Y0209010D02*
X0156531Y0208936D01*
X0156525Y0208861D01*
X0156515Y0208788D01*
X0156502Y0208714D01*
X0156485Y0208642D01*
X0156463Y0208571D01*
X0156439Y0208500D01*
X0156410Y0208432D01*
X0156378Y0208364D01*
X0156342Y0208299D01*
X0156304Y0208236D01*
X0156261Y0208174D01*
X0156216Y0208115D01*
X0156168Y0208058D01*
X0156117Y0208004D01*
X0156063Y0207953D01*
X0156006Y0207905D01*
X0155947Y0207860D01*
X0155885Y0207817D01*
X0155822Y0207779D01*
X0155757Y0207743D01*
X0155689Y0207711D01*
X0155621Y0207682D01*
X0155550Y0207658D01*
X0155479Y0207636D01*
X0155407Y0207619D01*
X0155333Y0207606D01*
X0155260Y0207596D01*
X0155185Y0207590D01*
X0155111Y0207588D01*
X0155037Y0207590D01*
X0154962Y0207596D01*
X0154889Y0207606D01*
X0154815Y0207619D01*
X0154743Y0207636D01*
X0154672Y0207658D01*
X0154601Y0207682D01*
X0154533Y0207711D01*
X0154465Y0207743D01*
X0154400Y0207779D01*
X0154337Y0207817D01*
X0154275Y0207860D01*
X0154216Y0207905D01*
X0154159Y0207953D01*
X0154105Y0208004D01*
X0154054Y0208058D01*
X0154006Y0208115D01*
X0153961Y0208174D01*
X0153918Y0208236D01*
X0153880Y0208299D01*
X0153844Y0208364D01*
X0153812Y0208432D01*
X0153783Y0208500D01*
X0153759Y0208571D01*
X0153737Y0208642D01*
X0153720Y0208714D01*
X0153707Y0208788D01*
X0153697Y0208861D01*
X0153691Y0208936D01*
X0153689Y0209010D01*
X0153691Y0209084D01*
X0153697Y0209159D01*
X0153707Y0209232D01*
X0153720Y0209306D01*
X0153737Y0209378D01*
X0153759Y0209449D01*
X0153783Y0209520D01*
X0153812Y0209588D01*
X0153844Y0209656D01*
X0153880Y0209721D01*
X0153918Y0209784D01*
X0153961Y0209846D01*
X0154006Y0209905D01*
X0154054Y0209962D01*
X0154105Y0210016D01*
X0154159Y0210067D01*
X0154216Y0210115D01*
X0154275Y0210160D01*
X0154337Y0210203D01*
X0154400Y0210241D01*
X0154465Y0210277D01*
X0154533Y0210309D01*
X0154601Y0210338D01*
X0154672Y0210362D01*
X0154743Y0210384D01*
X0154815Y0210401D01*
X0154889Y0210414D01*
X0154962Y0210424D01*
X0155037Y0210430D01*
X0155111Y0210432D01*
X0155185Y0210430D01*
X0155260Y0210424D01*
X0155333Y0210414D01*
X0155407Y0210401D01*
X0155479Y0210384D01*
X0155550Y0210362D01*
X0155621Y0210338D01*
X0155689Y0210309D01*
X0155757Y0210277D01*
X0155822Y0210241D01*
X0155885Y0210203D01*
X0155947Y0210160D01*
X0156006Y0210115D01*
X0156063Y0210067D01*
X0156117Y0210016D01*
X0156168Y0209962D01*
X0156216Y0209905D01*
X0156261Y0209846D01*
X0156304Y0209784D01*
X0156342Y0209721D01*
X0156378Y0209656D01*
X0156410Y0209588D01*
X0156439Y0209520D01*
X0156463Y0209449D01*
X0156485Y0209378D01*
X0156502Y0209306D01*
X0156515Y0209232D01*
X0156525Y0209159D01*
X0156531Y0209084D01*
X0156533Y0209010D01*
X0156889Y0205810D02*
X0156887Y0205727D01*
X0156881Y0205644D01*
X0156871Y0205561D01*
X0156858Y0205478D01*
X0156840Y0205397D01*
X0156819Y0205316D01*
X0156794Y0205237D01*
X0156765Y0205159D01*
X0156733Y0205082D01*
X0156697Y0205007D01*
X0156658Y0204933D01*
X0156615Y0204862D01*
X0156569Y0204792D01*
X0156519Y0204725D01*
X0156467Y0204660D01*
X0156412Y0204598D01*
X0156353Y0204538D01*
X0156292Y0204481D01*
X0156229Y0204427D01*
X0156163Y0204376D01*
X0156094Y0204329D01*
X0156024Y0204284D01*
X0155951Y0204243D01*
X0155877Y0204206D01*
X0155801Y0204171D01*
X0155723Y0204141D01*
X0155645Y0204114D01*
X0155564Y0204091D01*
X0155483Y0204071D01*
X0155401Y0204056D01*
X0155319Y0204044D01*
X0155236Y0204036D01*
X0155153Y0204032D01*
X0155069Y0204032D01*
X0154986Y0204036D01*
X0154903Y0204044D01*
X0154821Y0204056D01*
X0154739Y0204071D01*
X0154658Y0204091D01*
X0154577Y0204114D01*
X0154499Y0204141D01*
X0154421Y0204171D01*
X0154345Y0204206D01*
X0154271Y0204243D01*
X0154198Y0204284D01*
X0154128Y0204329D01*
X0154059Y0204376D01*
X0153993Y0204427D01*
X0153930Y0204481D01*
X0153869Y0204538D01*
X0153810Y0204598D01*
X0153755Y0204660D01*
X0153703Y0204725D01*
X0153653Y0204792D01*
X0153607Y0204862D01*
X0153564Y0204933D01*
X0153525Y0205007D01*
X0153489Y0205082D01*
X0153457Y0205159D01*
X0153428Y0205237D01*
X0153403Y0205316D01*
X0153382Y0205397D01*
X0153364Y0205478D01*
X0153351Y0205561D01*
X0153341Y0205644D01*
X0153335Y0205727D01*
X0153333Y0205810D01*
X0153335Y0205893D01*
X0153341Y0205976D01*
X0153351Y0206059D01*
X0153364Y0206142D01*
X0153382Y0206223D01*
X0153403Y0206304D01*
X0153428Y0206383D01*
X0153457Y0206461D01*
X0153489Y0206538D01*
X0153525Y0206613D01*
X0153564Y0206687D01*
X0153607Y0206758D01*
X0153653Y0206828D01*
X0153703Y0206895D01*
X0153755Y0206960D01*
X0153810Y0207022D01*
X0153869Y0207082D01*
X0153930Y0207139D01*
X0153993Y0207193D01*
X0154059Y0207244D01*
X0154128Y0207291D01*
X0154198Y0207336D01*
X0154271Y0207377D01*
X0154345Y0207414D01*
X0154421Y0207449D01*
X0154499Y0207479D01*
X0154577Y0207506D01*
X0154658Y0207529D01*
X0154739Y0207549D01*
X0154821Y0207564D01*
X0154903Y0207576D01*
X0154986Y0207584D01*
X0155069Y0207588D01*
X0155153Y0207588D01*
X0155236Y0207584D01*
X0155319Y0207576D01*
X0155401Y0207564D01*
X0155483Y0207549D01*
X0155564Y0207529D01*
X0155645Y0207506D01*
X0155723Y0207479D01*
X0155801Y0207449D01*
X0155877Y0207414D01*
X0155951Y0207377D01*
X0156024Y0207336D01*
X0156094Y0207291D01*
X0156163Y0207244D01*
X0156229Y0207193D01*
X0156292Y0207139D01*
X0156353Y0207082D01*
X0156412Y0207022D01*
X0156467Y0206960D01*
X0156519Y0206895D01*
X0156569Y0206828D01*
X0156615Y0206758D01*
X0156658Y0206687D01*
X0156697Y0206613D01*
X0156733Y0206538D01*
X0156765Y0206461D01*
X0156794Y0206383D01*
X0156819Y0206304D01*
X0156840Y0206223D01*
X0156858Y0206142D01*
X0156871Y0206059D01*
X0156881Y0205976D01*
X0156887Y0205893D01*
X0156889Y0205810D01*
X0150981Y0204388D02*
X0150981Y0204032D01*
X0150625Y0204032D01*
X0150625Y0204388D01*
X0150981Y0204388D01*
X0148273Y0205810D02*
X0148273Y0206166D01*
X0148271Y0206240D01*
X0148265Y0206315D01*
X0148255Y0206388D01*
X0148242Y0206462D01*
X0148225Y0206534D01*
X0148203Y0206605D01*
X0148179Y0206676D01*
X0148150Y0206744D01*
X0148118Y0206812D01*
X0148082Y0206877D01*
X0148044Y0206940D01*
X0148001Y0207002D01*
X0147956Y0207061D01*
X0147908Y0207118D01*
X0147857Y0207172D01*
X0147803Y0207223D01*
X0147746Y0207271D01*
X0147687Y0207316D01*
X0147625Y0207359D01*
X0147562Y0207397D01*
X0147497Y0207433D01*
X0147429Y0207465D01*
X0147361Y0207494D01*
X0147290Y0207518D01*
X0147219Y0207540D01*
X0147147Y0207557D01*
X0147073Y0207570D01*
X0147000Y0207580D01*
X0146925Y0207586D01*
X0146851Y0207588D01*
X0144717Y0207588D01*
X0144717Y0205810D01*
X0144719Y0205727D01*
X0144725Y0205644D01*
X0144735Y0205561D01*
X0144748Y0205478D01*
X0144766Y0205397D01*
X0144787Y0205316D01*
X0144812Y0205237D01*
X0144841Y0205159D01*
X0144873Y0205082D01*
X0144909Y0205007D01*
X0144948Y0204933D01*
X0144991Y0204862D01*
X0145037Y0204792D01*
X0145087Y0204725D01*
X0145139Y0204660D01*
X0145194Y0204598D01*
X0145253Y0204538D01*
X0145314Y0204481D01*
X0145377Y0204427D01*
X0145443Y0204376D01*
X0145512Y0204329D01*
X0145582Y0204284D01*
X0145655Y0204243D01*
X0145729Y0204206D01*
X0145805Y0204171D01*
X0145883Y0204141D01*
X0145961Y0204114D01*
X0146042Y0204091D01*
X0146123Y0204071D01*
X0146205Y0204056D01*
X0146287Y0204044D01*
X0146370Y0204036D01*
X0146453Y0204032D01*
X0146537Y0204032D01*
X0146620Y0204036D01*
X0146703Y0204044D01*
X0146785Y0204056D01*
X0146867Y0204071D01*
X0146948Y0204091D01*
X0147029Y0204114D01*
X0147107Y0204141D01*
X0147185Y0204171D01*
X0147261Y0204206D01*
X0147335Y0204243D01*
X0147408Y0204284D01*
X0147478Y0204329D01*
X0147547Y0204376D01*
X0147613Y0204427D01*
X0147676Y0204481D01*
X0147737Y0204538D01*
X0147796Y0204598D01*
X0147851Y0204660D01*
X0147903Y0204725D01*
X0147953Y0204792D01*
X0147999Y0204862D01*
X0148042Y0204933D01*
X0148081Y0205007D01*
X0148117Y0205082D01*
X0148149Y0205159D01*
X0148178Y0205237D01*
X0148203Y0205316D01*
X0148224Y0205397D01*
X0148242Y0205478D01*
X0148255Y0205561D01*
X0148265Y0205644D01*
X0148271Y0205727D01*
X0148273Y0205810D01*
X0144718Y0207588D02*
X0144720Y0207694D01*
X0144726Y0207801D01*
X0144736Y0207906D01*
X0144750Y0208012D01*
X0144768Y0208117D01*
X0144789Y0208221D01*
X0144815Y0208324D01*
X0144844Y0208426D01*
X0144878Y0208527D01*
X0144915Y0208627D01*
X0144955Y0208725D01*
X0145000Y0208822D01*
X0145048Y0208917D01*
X0145099Y0209010D01*
X0145154Y0209101D01*
X0145212Y0209190D01*
X0145274Y0209277D01*
X0145338Y0209361D01*
X0145406Y0209443D01*
X0145477Y0209522D01*
X0145551Y0209599D01*
X0145628Y0209673D01*
X0145707Y0209744D01*
X0145789Y0209812D01*
X0145873Y0209876D01*
X0145960Y0209938D01*
X0146049Y0209996D01*
X0146140Y0210051D01*
X0146233Y0210102D01*
X0146328Y0210150D01*
X0146425Y0210195D01*
X0146523Y0210235D01*
X0146623Y0210272D01*
X0146724Y0210306D01*
X0146826Y0210335D01*
X0146929Y0210361D01*
X0147033Y0210382D01*
X0147138Y0210400D01*
X0147244Y0210414D01*
X0147349Y0210424D01*
X0147456Y0210430D01*
X0147562Y0210432D01*
X0140697Y0210432D02*
X0138563Y0210432D01*
X0140697Y0210432D02*
X0140771Y0210430D01*
X0140846Y0210424D01*
X0140919Y0210414D01*
X0140993Y0210401D01*
X0141065Y0210384D01*
X0141136Y0210362D01*
X0141207Y0210338D01*
X0141275Y0210309D01*
X0141343Y0210277D01*
X0141408Y0210241D01*
X0141471Y0210203D01*
X0141533Y0210160D01*
X0141592Y0210115D01*
X0141649Y0210067D01*
X0141703Y0210016D01*
X0141754Y0209962D01*
X0141802Y0209905D01*
X0141847Y0209846D01*
X0141890Y0209784D01*
X0141928Y0209721D01*
X0141964Y0209656D01*
X0141996Y0209588D01*
X0142025Y0209520D01*
X0142049Y0209449D01*
X0142071Y0209378D01*
X0142088Y0209306D01*
X0142101Y0209232D01*
X0142111Y0209159D01*
X0142117Y0209084D01*
X0142119Y0209010D01*
X0142117Y0208936D01*
X0142111Y0208861D01*
X0142101Y0208788D01*
X0142088Y0208714D01*
X0142071Y0208642D01*
X0142049Y0208571D01*
X0142025Y0208500D01*
X0141996Y0208432D01*
X0141964Y0208364D01*
X0141928Y0208299D01*
X0141890Y0208236D01*
X0141847Y0208174D01*
X0141802Y0208115D01*
X0141754Y0208058D01*
X0141703Y0208004D01*
X0141649Y0207953D01*
X0141592Y0207905D01*
X0141533Y0207860D01*
X0141471Y0207817D01*
X0141408Y0207779D01*
X0141343Y0207743D01*
X0141275Y0207711D01*
X0141207Y0207682D01*
X0141136Y0207658D01*
X0141065Y0207636D01*
X0140993Y0207619D01*
X0140919Y0207606D01*
X0140846Y0207596D01*
X0140771Y0207590D01*
X0140697Y0207588D01*
X0139274Y0207588D01*
X0140341Y0207588D02*
X0140424Y0207586D01*
X0140507Y0207580D01*
X0140590Y0207570D01*
X0140673Y0207557D01*
X0140754Y0207539D01*
X0140835Y0207518D01*
X0140914Y0207493D01*
X0140992Y0207464D01*
X0141069Y0207432D01*
X0141144Y0207396D01*
X0141218Y0207357D01*
X0141289Y0207314D01*
X0141359Y0207268D01*
X0141426Y0207218D01*
X0141491Y0207166D01*
X0141553Y0207111D01*
X0141613Y0207052D01*
X0141670Y0206991D01*
X0141724Y0206928D01*
X0141775Y0206862D01*
X0141822Y0206793D01*
X0141867Y0206723D01*
X0141908Y0206650D01*
X0141945Y0206576D01*
X0141980Y0206500D01*
X0142010Y0206422D01*
X0142037Y0206344D01*
X0142060Y0206263D01*
X0142080Y0206182D01*
X0142095Y0206100D01*
X0142107Y0206018D01*
X0142115Y0205935D01*
X0142119Y0205852D01*
X0142119Y0205768D01*
X0142115Y0205685D01*
X0142107Y0205602D01*
X0142095Y0205520D01*
X0142080Y0205438D01*
X0142060Y0205357D01*
X0142037Y0205276D01*
X0142010Y0205198D01*
X0141980Y0205120D01*
X0141945Y0205044D01*
X0141908Y0204970D01*
X0141867Y0204897D01*
X0141822Y0204827D01*
X0141775Y0204758D01*
X0141724Y0204692D01*
X0141670Y0204629D01*
X0141613Y0204568D01*
X0141553Y0204509D01*
X0141491Y0204454D01*
X0141426Y0204402D01*
X0141359Y0204352D01*
X0141289Y0204306D01*
X0141218Y0204263D01*
X0141144Y0204224D01*
X0141069Y0204188D01*
X0140992Y0204156D01*
X0140914Y0204127D01*
X0140835Y0204102D01*
X0140754Y0204081D01*
X0140673Y0204063D01*
X0140590Y0204050D01*
X0140507Y0204040D01*
X0140424Y0204034D01*
X0140341Y0204032D01*
X0138563Y0204032D01*
X0010780Y0086189D02*
X0010780Y0082633D01*
X0007224Y0085655D01*
X0004380Y0084589D02*
X0004382Y0084500D01*
X0004388Y0084411D01*
X0004397Y0084322D01*
X0004411Y0084234D01*
X0004428Y0084147D01*
X0004449Y0084060D01*
X0004474Y0083974D01*
X0004502Y0083890D01*
X0004535Y0083807D01*
X0004570Y0083725D01*
X0004610Y0083645D01*
X0004652Y0083567D01*
X0004698Y0083490D01*
X0004747Y0083416D01*
X0004800Y0083344D01*
X0004855Y0083274D01*
X0004914Y0083207D01*
X0004975Y0083142D01*
X0005039Y0083080D01*
X0005106Y0083021D01*
X0005175Y0082965D01*
X0005247Y0082912D01*
X0005321Y0082862D01*
X0005397Y0082815D01*
X0005474Y0082772D01*
X0005554Y0082732D01*
X0005635Y0082695D01*
X0005718Y0082662D01*
X0005803Y0082633D01*
X0007225Y0085656D02*
X0007167Y0085713D01*
X0007106Y0085769D01*
X0007043Y0085821D01*
X0006978Y0085870D01*
X0006910Y0085916D01*
X0006840Y0085958D01*
X0006768Y0085998D01*
X0006695Y0086033D01*
X0006619Y0086066D01*
X0006543Y0086094D01*
X0006465Y0086119D01*
X0006386Y0086140D01*
X0006306Y0086158D01*
X0006225Y0086171D01*
X0006144Y0086181D01*
X0006062Y0086187D01*
X0005980Y0086189D01*
X0005901Y0086187D01*
X0005823Y0086181D01*
X0005745Y0086172D01*
X0005668Y0086158D01*
X0005591Y0086141D01*
X0005516Y0086120D01*
X0005441Y0086095D01*
X0005368Y0086067D01*
X0005296Y0086035D01*
X0005226Y0086000D01*
X0005157Y0085961D01*
X0005091Y0085919D01*
X0005027Y0085874D01*
X0004965Y0085826D01*
X0004906Y0085775D01*
X0004849Y0085720D01*
X0004794Y0085663D01*
X0004743Y0085604D01*
X0004695Y0085542D01*
X0004650Y0085478D01*
X0004608Y0085412D01*
X0004569Y0085343D01*
X0004534Y0085273D01*
X0004502Y0085201D01*
X0004474Y0085128D01*
X0004449Y0085053D01*
X0004428Y0084978D01*
X0004411Y0084901D01*
X0004397Y0084824D01*
X0004388Y0084746D01*
X0004382Y0084668D01*
X0004380Y0084589D01*
X0005802Y0079679D02*
X0005876Y0079677D01*
X0005951Y0079671D01*
X0006024Y0079661D01*
X0006098Y0079648D01*
X0006170Y0079631D01*
X0006241Y0079609D01*
X0006312Y0079585D01*
X0006380Y0079556D01*
X0006448Y0079524D01*
X0006513Y0079488D01*
X0006576Y0079450D01*
X0006638Y0079407D01*
X0006697Y0079362D01*
X0006754Y0079314D01*
X0006808Y0079263D01*
X0006859Y0079209D01*
X0006907Y0079152D01*
X0006952Y0079093D01*
X0006995Y0079031D01*
X0007033Y0078968D01*
X0007069Y0078903D01*
X0007101Y0078835D01*
X0007130Y0078767D01*
X0007154Y0078696D01*
X0007176Y0078625D01*
X0007193Y0078553D01*
X0007206Y0078479D01*
X0007216Y0078406D01*
X0007222Y0078331D01*
X0007224Y0078257D01*
X0007222Y0078183D01*
X0007216Y0078108D01*
X0007206Y0078035D01*
X0007193Y0077961D01*
X0007176Y0077889D01*
X0007154Y0077818D01*
X0007130Y0077747D01*
X0007101Y0077679D01*
X0007069Y0077611D01*
X0007033Y0077546D01*
X0006995Y0077483D01*
X0006952Y0077421D01*
X0006907Y0077362D01*
X0006859Y0077305D01*
X0006808Y0077251D01*
X0006754Y0077200D01*
X0006697Y0077152D01*
X0006638Y0077107D01*
X0006576Y0077064D01*
X0006513Y0077026D01*
X0006448Y0076990D01*
X0006380Y0076958D01*
X0006312Y0076929D01*
X0006241Y0076905D01*
X0006170Y0076883D01*
X0006098Y0076866D01*
X0006024Y0076853D01*
X0005951Y0076843D01*
X0005876Y0076837D01*
X0005802Y0076835D01*
X0005728Y0076837D01*
X0005653Y0076843D01*
X0005580Y0076853D01*
X0005506Y0076866D01*
X0005434Y0076883D01*
X0005363Y0076905D01*
X0005292Y0076929D01*
X0005224Y0076958D01*
X0005156Y0076990D01*
X0005091Y0077026D01*
X0005028Y0077064D01*
X0004966Y0077107D01*
X0004907Y0077152D01*
X0004850Y0077200D01*
X0004796Y0077251D01*
X0004745Y0077305D01*
X0004697Y0077362D01*
X0004652Y0077421D01*
X0004609Y0077483D01*
X0004571Y0077546D01*
X0004535Y0077611D01*
X0004503Y0077679D01*
X0004474Y0077747D01*
X0004450Y0077818D01*
X0004428Y0077889D01*
X0004411Y0077961D01*
X0004398Y0078035D01*
X0004388Y0078108D01*
X0004382Y0078183D01*
X0004380Y0078257D01*
X0004382Y0078331D01*
X0004388Y0078406D01*
X0004398Y0078479D01*
X0004411Y0078553D01*
X0004428Y0078625D01*
X0004450Y0078696D01*
X0004474Y0078767D01*
X0004503Y0078835D01*
X0004535Y0078903D01*
X0004571Y0078968D01*
X0004609Y0079031D01*
X0004652Y0079093D01*
X0004697Y0079152D01*
X0004745Y0079209D01*
X0004796Y0079263D01*
X0004850Y0079314D01*
X0004907Y0079362D01*
X0004966Y0079407D01*
X0005028Y0079450D01*
X0005091Y0079488D01*
X0005156Y0079524D01*
X0005224Y0079556D01*
X0005292Y0079585D01*
X0005363Y0079609D01*
X0005434Y0079631D01*
X0005506Y0079648D01*
X0005580Y0079661D01*
X0005653Y0079671D01*
X0005728Y0079677D01*
X0005802Y0079679D01*
X0009002Y0080035D02*
X0009085Y0080033D01*
X0009168Y0080027D01*
X0009251Y0080017D01*
X0009334Y0080004D01*
X0009415Y0079986D01*
X0009496Y0079965D01*
X0009575Y0079940D01*
X0009653Y0079911D01*
X0009730Y0079879D01*
X0009805Y0079843D01*
X0009879Y0079804D01*
X0009950Y0079761D01*
X0010020Y0079715D01*
X0010087Y0079665D01*
X0010152Y0079613D01*
X0010214Y0079558D01*
X0010274Y0079499D01*
X0010331Y0079438D01*
X0010385Y0079375D01*
X0010436Y0079309D01*
X0010483Y0079240D01*
X0010528Y0079170D01*
X0010569Y0079097D01*
X0010606Y0079023D01*
X0010641Y0078947D01*
X0010671Y0078869D01*
X0010698Y0078791D01*
X0010721Y0078710D01*
X0010741Y0078629D01*
X0010756Y0078547D01*
X0010768Y0078465D01*
X0010776Y0078382D01*
X0010780Y0078299D01*
X0010780Y0078215D01*
X0010776Y0078132D01*
X0010768Y0078049D01*
X0010756Y0077967D01*
X0010741Y0077885D01*
X0010721Y0077804D01*
X0010698Y0077723D01*
X0010671Y0077645D01*
X0010641Y0077567D01*
X0010606Y0077491D01*
X0010569Y0077417D01*
X0010528Y0077344D01*
X0010483Y0077274D01*
X0010436Y0077205D01*
X0010385Y0077139D01*
X0010331Y0077076D01*
X0010274Y0077015D01*
X0010214Y0076956D01*
X0010152Y0076901D01*
X0010087Y0076849D01*
X0010020Y0076799D01*
X0009950Y0076753D01*
X0009879Y0076710D01*
X0009805Y0076671D01*
X0009730Y0076635D01*
X0009653Y0076603D01*
X0009575Y0076574D01*
X0009496Y0076549D01*
X0009415Y0076528D01*
X0009334Y0076510D01*
X0009251Y0076497D01*
X0009168Y0076487D01*
X0009085Y0076481D01*
X0009002Y0076479D01*
X0008919Y0076481D01*
X0008836Y0076487D01*
X0008753Y0076497D01*
X0008670Y0076510D01*
X0008589Y0076528D01*
X0008508Y0076549D01*
X0008429Y0076574D01*
X0008351Y0076603D01*
X0008274Y0076635D01*
X0008199Y0076671D01*
X0008125Y0076710D01*
X0008054Y0076753D01*
X0007984Y0076799D01*
X0007917Y0076849D01*
X0007852Y0076901D01*
X0007790Y0076956D01*
X0007730Y0077015D01*
X0007673Y0077076D01*
X0007619Y0077139D01*
X0007568Y0077205D01*
X0007521Y0077274D01*
X0007476Y0077344D01*
X0007435Y0077417D01*
X0007398Y0077491D01*
X0007363Y0077567D01*
X0007333Y0077645D01*
X0007306Y0077723D01*
X0007283Y0077804D01*
X0007263Y0077885D01*
X0007248Y0077967D01*
X0007236Y0078049D01*
X0007228Y0078132D01*
X0007224Y0078215D01*
X0007224Y0078299D01*
X0007228Y0078382D01*
X0007236Y0078465D01*
X0007248Y0078547D01*
X0007263Y0078629D01*
X0007283Y0078710D01*
X0007306Y0078791D01*
X0007333Y0078869D01*
X0007363Y0078947D01*
X0007398Y0079023D01*
X0007435Y0079097D01*
X0007476Y0079170D01*
X0007521Y0079240D01*
X0007568Y0079309D01*
X0007619Y0079375D01*
X0007673Y0079438D01*
X0007730Y0079499D01*
X0007790Y0079558D01*
X0007852Y0079613D01*
X0007917Y0079665D01*
X0007984Y0079715D01*
X0008054Y0079761D01*
X0008125Y0079804D01*
X0008199Y0079843D01*
X0008274Y0079879D01*
X0008351Y0079911D01*
X0008429Y0079940D01*
X0008508Y0079965D01*
X0008589Y0079986D01*
X0008670Y0080004D01*
X0008753Y0080017D01*
X0008836Y0080027D01*
X0008919Y0080033D01*
X0009002Y0080035D01*
X0010424Y0074127D02*
X0010780Y0074127D01*
X0010780Y0073771D01*
X0010424Y0073771D01*
X0010424Y0074127D01*
X0009002Y0071419D02*
X0008647Y0071419D01*
X0008573Y0071417D01*
X0008498Y0071411D01*
X0008425Y0071401D01*
X0008351Y0071388D01*
X0008279Y0071371D01*
X0008208Y0071349D01*
X0008137Y0071325D01*
X0008069Y0071296D01*
X0008001Y0071264D01*
X0007936Y0071228D01*
X0007873Y0071190D01*
X0007811Y0071147D01*
X0007752Y0071102D01*
X0007695Y0071054D01*
X0007641Y0071003D01*
X0007590Y0070949D01*
X0007542Y0070892D01*
X0007497Y0070833D01*
X0007454Y0070771D01*
X0007416Y0070708D01*
X0007380Y0070643D01*
X0007348Y0070575D01*
X0007319Y0070507D01*
X0007295Y0070436D01*
X0007273Y0070365D01*
X0007256Y0070293D01*
X0007243Y0070219D01*
X0007233Y0070146D01*
X0007227Y0070071D01*
X0007225Y0069997D01*
X0007224Y0069997D02*
X0007224Y0067863D01*
X0009002Y0067863D01*
X0009085Y0067865D01*
X0009168Y0067871D01*
X0009251Y0067881D01*
X0009334Y0067894D01*
X0009415Y0067912D01*
X0009496Y0067933D01*
X0009575Y0067958D01*
X0009653Y0067987D01*
X0009730Y0068019D01*
X0009805Y0068055D01*
X0009879Y0068094D01*
X0009950Y0068137D01*
X0010020Y0068183D01*
X0010087Y0068233D01*
X0010152Y0068285D01*
X0010214Y0068340D01*
X0010274Y0068399D01*
X0010331Y0068460D01*
X0010385Y0068523D01*
X0010436Y0068589D01*
X0010483Y0068658D01*
X0010528Y0068728D01*
X0010569Y0068801D01*
X0010606Y0068875D01*
X0010641Y0068951D01*
X0010671Y0069029D01*
X0010698Y0069107D01*
X0010721Y0069188D01*
X0010741Y0069269D01*
X0010756Y0069351D01*
X0010768Y0069433D01*
X0010776Y0069516D01*
X0010780Y0069599D01*
X0010780Y0069683D01*
X0010776Y0069766D01*
X0010768Y0069849D01*
X0010756Y0069931D01*
X0010741Y0070013D01*
X0010721Y0070094D01*
X0010698Y0070175D01*
X0010671Y0070253D01*
X0010641Y0070331D01*
X0010606Y0070407D01*
X0010569Y0070481D01*
X0010528Y0070554D01*
X0010483Y0070624D01*
X0010436Y0070693D01*
X0010385Y0070759D01*
X0010331Y0070822D01*
X0010274Y0070883D01*
X0010214Y0070942D01*
X0010152Y0070997D01*
X0010087Y0071049D01*
X0010020Y0071099D01*
X0009950Y0071145D01*
X0009879Y0071188D01*
X0009805Y0071227D01*
X0009730Y0071263D01*
X0009653Y0071295D01*
X0009575Y0071324D01*
X0009496Y0071349D01*
X0009415Y0071370D01*
X0009334Y0071388D01*
X0009251Y0071401D01*
X0009168Y0071411D01*
X0009085Y0071417D01*
X0009002Y0071419D01*
X0007224Y0067864D02*
X0007118Y0067866D01*
X0007011Y0067872D01*
X0006906Y0067882D01*
X0006800Y0067896D01*
X0006695Y0067914D01*
X0006591Y0067935D01*
X0006488Y0067961D01*
X0006386Y0067990D01*
X0006285Y0068024D01*
X0006185Y0068061D01*
X0006087Y0068101D01*
X0005990Y0068146D01*
X0005895Y0068194D01*
X0005802Y0068245D01*
X0005711Y0068300D01*
X0005622Y0068358D01*
X0005535Y0068420D01*
X0005451Y0068484D01*
X0005369Y0068552D01*
X0005290Y0068623D01*
X0005213Y0068697D01*
X0005139Y0068774D01*
X0005068Y0068853D01*
X0005000Y0068935D01*
X0004936Y0069019D01*
X0004874Y0069106D01*
X0004816Y0069195D01*
X0004761Y0069286D01*
X0004710Y0069379D01*
X0004662Y0069474D01*
X0004617Y0069571D01*
X0004577Y0069669D01*
X0004540Y0069769D01*
X0004506Y0069870D01*
X0004477Y0069972D01*
X0004451Y0070075D01*
X0004430Y0070179D01*
X0004412Y0070284D01*
X0004398Y0070390D01*
X0004388Y0070495D01*
X0004382Y0070602D01*
X0004380Y0070708D01*
X0004380Y0063843D02*
X0004380Y0061709D01*
X0004380Y0063843D02*
X0004382Y0063917D01*
X0004388Y0063992D01*
X0004398Y0064065D01*
X0004411Y0064139D01*
X0004428Y0064211D01*
X0004450Y0064282D01*
X0004474Y0064353D01*
X0004503Y0064421D01*
X0004535Y0064489D01*
X0004571Y0064554D01*
X0004609Y0064617D01*
X0004652Y0064679D01*
X0004697Y0064738D01*
X0004745Y0064795D01*
X0004796Y0064849D01*
X0004850Y0064900D01*
X0004907Y0064948D01*
X0004966Y0064993D01*
X0005028Y0065036D01*
X0005091Y0065074D01*
X0005156Y0065110D01*
X0005224Y0065142D01*
X0005292Y0065171D01*
X0005363Y0065195D01*
X0005434Y0065217D01*
X0005506Y0065234D01*
X0005580Y0065247D01*
X0005653Y0065257D01*
X0005728Y0065263D01*
X0005802Y0065265D01*
X0005876Y0065263D01*
X0005951Y0065257D01*
X0006024Y0065247D01*
X0006098Y0065234D01*
X0006170Y0065217D01*
X0006241Y0065195D01*
X0006312Y0065171D01*
X0006380Y0065142D01*
X0006448Y0065110D01*
X0006513Y0065074D01*
X0006576Y0065036D01*
X0006638Y0064993D01*
X0006697Y0064948D01*
X0006754Y0064900D01*
X0006808Y0064849D01*
X0006859Y0064795D01*
X0006907Y0064738D01*
X0006952Y0064679D01*
X0006995Y0064617D01*
X0007033Y0064554D01*
X0007069Y0064489D01*
X0007101Y0064421D01*
X0007130Y0064353D01*
X0007154Y0064282D01*
X0007176Y0064211D01*
X0007193Y0064139D01*
X0007206Y0064065D01*
X0007216Y0063992D01*
X0007222Y0063917D01*
X0007224Y0063843D01*
X0007224Y0062421D01*
X0007224Y0063487D02*
X0007226Y0063570D01*
X0007232Y0063653D01*
X0007242Y0063736D01*
X0007255Y0063819D01*
X0007273Y0063900D01*
X0007294Y0063981D01*
X0007319Y0064060D01*
X0007348Y0064138D01*
X0007380Y0064215D01*
X0007416Y0064290D01*
X0007455Y0064364D01*
X0007498Y0064435D01*
X0007544Y0064505D01*
X0007594Y0064572D01*
X0007646Y0064637D01*
X0007701Y0064699D01*
X0007760Y0064759D01*
X0007821Y0064816D01*
X0007884Y0064870D01*
X0007950Y0064921D01*
X0008019Y0064968D01*
X0008089Y0065013D01*
X0008162Y0065054D01*
X0008236Y0065091D01*
X0008312Y0065126D01*
X0008390Y0065156D01*
X0008468Y0065183D01*
X0008549Y0065206D01*
X0008630Y0065226D01*
X0008712Y0065241D01*
X0008794Y0065253D01*
X0008877Y0065261D01*
X0008960Y0065265D01*
X0009044Y0065265D01*
X0009127Y0065261D01*
X0009210Y0065253D01*
X0009292Y0065241D01*
X0009374Y0065226D01*
X0009455Y0065206D01*
X0009536Y0065183D01*
X0009614Y0065156D01*
X0009692Y0065126D01*
X0009768Y0065091D01*
X0009842Y0065054D01*
X0009915Y0065013D01*
X0009985Y0064968D01*
X0010054Y0064921D01*
X0010120Y0064870D01*
X0010183Y0064816D01*
X0010244Y0064759D01*
X0010303Y0064699D01*
X0010358Y0064637D01*
X0010410Y0064572D01*
X0010460Y0064505D01*
X0010506Y0064435D01*
X0010549Y0064364D01*
X0010588Y0064290D01*
X0010624Y0064215D01*
X0010656Y0064138D01*
X0010685Y0064060D01*
X0010710Y0063981D01*
X0010731Y0063900D01*
X0010749Y0063819D01*
X0010762Y0063736D01*
X0010772Y0063653D01*
X0010778Y0063570D01*
X0010780Y0063487D01*
X0010780Y0061709D01*
M02*
