%
M48
M72
T01C0.0118
T02C0.0138
T03C0.0394
T04C0.0400
%
T01
X12334Y6699
X14034Y7099
X14184Y8499
X14784Y8499
X16084Y8299
X17734Y8699
X15934Y6399
X16984Y5249
X13784Y2849
X16134Y1999
X14134Y10049
X16884Y12399
X15334Y13449
T02
X18434Y10749
X20184Y10749
X16634Y9999
X16084Y9999
X17984Y8099
X18384Y7649
X18234Y6649
X17334Y6299
X14784Y6699
X14484Y6399
X12784Y5049
X12984Y3999
X14134Y4549
X11984Y7099
X19984Y7049
X19984Y6249
X20234Y5649
T03
X8834Y3378
X8834Y4378
X8834Y5378
X8834Y6378
X8834Y7378
X8834Y8378
X8834Y9378
X8834Y10378
X8834Y11378
X21184Y8649
X21184Y7649
X21184Y6649
X21184Y5649
T04
X18834Y5649
X18834Y4149
X18234Y1149
X16734Y1149
X19834Y1149
X10334Y1149
X10334Y13649
X11834Y13649
X13334Y13649
X18334Y13649
X19834Y13649
M30
