G75*
%MOIN*%
%OFA0B0*%
%FSLAX25Y25*%
%IPPOS*%
%LPD*%
%AMOC8*
5,1,8,0,0,1.08239X$1,22.5*
%
%ADD10C,0.06737*%
%ADD11C,0.01380*%
%ADD12R,0.01181X0.02362*%
%ADD13R,0.06693X0.09646*%
%ADD14R,0.02992X0.01378*%
%ADD15R,0.12611X0.04737*%
%ADD16R,0.05131X0.04737*%
%ADD17R,0.04737X0.05131*%
%ADD18R,0.02900X0.06400*%
%ADD19R,0.05800X0.03000*%
%ADD20R,0.02900X0.07500*%
%ADD21R,0.08989X0.22454*%
%ADD22R,0.06600X0.01900*%
%ADD23R,0.01900X0.06600*%
%ADD24R,0.04737X0.07887*%
%ADD25OC8,0.10800*%
%ADD26C,0.03581*%
%ADD27C,0.03778*%
D10*
X0085373Y0033776D02*
X0091310Y0033776D01*
X0091310Y0043776D02*
X0085373Y0043776D01*
X0085373Y0053776D02*
X0091310Y0053776D01*
X0091310Y0063776D02*
X0085373Y0063776D01*
X0085373Y0073776D02*
X0091310Y0073776D01*
X0091310Y0083776D02*
X0085373Y0083776D01*
X0085373Y0093776D02*
X0091310Y0093776D01*
X0091310Y0103776D02*
X0085373Y0103776D01*
X0085373Y0113776D02*
X0091310Y0113776D01*
X0208873Y0086492D02*
X0214810Y0086492D01*
X0214810Y0076492D02*
X0208873Y0076492D01*
X0208873Y0066492D02*
X0214810Y0066492D01*
X0214810Y0056492D02*
X0208873Y0056492D01*
D11*
X0197728Y0095455D03*
X0197728Y0097424D03*
X0197728Y0099392D03*
X0197728Y0101361D03*
X0197728Y0103329D03*
X0188555Y0103329D03*
X0188555Y0101361D03*
X0188555Y0099392D03*
X0188555Y0097424D03*
X0188555Y0095455D03*
D12*
X0192059Y0092994D03*
X0194224Y0092994D03*
X0194224Y0105790D03*
X0192059Y0105790D03*
D13*
X0193142Y0099392D03*
D14*
X0199224Y0099392D03*
X0199224Y0097424D03*
X0199224Y0095455D03*
X0199224Y0101361D03*
X0199224Y0103329D03*
X0187059Y0103329D03*
X0187059Y0101361D03*
X0187059Y0099392D03*
X0187059Y0097424D03*
X0187059Y0095455D03*
D15*
X0175242Y0093792D03*
X0175242Y0104792D03*
D16*
X0189595Y0112392D03*
X0196288Y0112392D03*
X0196588Y0078292D03*
X0189895Y0078292D03*
X0199495Y0024992D03*
X0206188Y0024992D03*
D17*
X0204995Y0048492D03*
X0211688Y0048492D03*
X0174188Y0040992D03*
X0167495Y0040992D03*
X0167495Y0032992D03*
X0174188Y0032992D03*
X0137842Y0033146D03*
X0137842Y0039839D03*
X0189795Y0086292D03*
X0196488Y0086292D03*
X0208542Y0095246D03*
X0208542Y0101939D03*
X0168842Y0112646D03*
X0168842Y0119339D03*
X0139188Y0120492D03*
X0132495Y0120492D03*
X0132495Y0112492D03*
X0139188Y0112492D03*
D18*
X0145842Y0105492D03*
X0150842Y0105492D03*
X0155842Y0105492D03*
X0160842Y0105492D03*
X0160842Y0127492D03*
X0155842Y0127492D03*
X0150842Y0127492D03*
X0145842Y0127492D03*
D19*
X0203242Y0040192D03*
X0203242Y0036492D03*
X0203242Y0032792D03*
X0213442Y0032792D03*
X0213442Y0040192D03*
D20*
X0160724Y0046692D03*
X0155724Y0046692D03*
X0150724Y0046692D03*
X0145724Y0046692D03*
X0145724Y0026292D03*
X0150724Y0026292D03*
X0155724Y0026292D03*
X0160724Y0026292D03*
D21*
X0111842Y0056791D03*
X0111842Y0094193D03*
D22*
X0134242Y0084792D03*
X0134242Y0082892D03*
X0134242Y0080892D03*
X0134242Y0078892D03*
X0134242Y0076992D03*
X0134242Y0074992D03*
X0134242Y0072992D03*
X0134242Y0070992D03*
X0134242Y0069092D03*
X0134242Y0067092D03*
X0134242Y0065092D03*
X0134242Y0063192D03*
X0167442Y0063192D03*
X0167442Y0065092D03*
X0167442Y0067092D03*
X0167442Y0069092D03*
X0167442Y0070992D03*
X0167442Y0072992D03*
X0167442Y0074992D03*
X0167442Y0076992D03*
X0167442Y0078892D03*
X0167442Y0080892D03*
X0167442Y0082892D03*
X0167442Y0084792D03*
D23*
X0161642Y0090592D03*
X0159742Y0090592D03*
X0157742Y0090592D03*
X0155742Y0090592D03*
X0153842Y0090592D03*
X0151842Y0090592D03*
X0149842Y0090592D03*
X0147842Y0090592D03*
X0145942Y0090592D03*
X0143942Y0090592D03*
X0141942Y0090592D03*
X0140042Y0090592D03*
X0140042Y0057392D03*
X0141942Y0057392D03*
X0143942Y0057392D03*
X0145942Y0057392D03*
X0147842Y0057392D03*
X0149842Y0057392D03*
X0151842Y0057392D03*
X0153842Y0057392D03*
X0155742Y0057392D03*
X0157742Y0057392D03*
X0159742Y0057392D03*
X0161642Y0057392D03*
D24*
X0153263Y0016492D03*
X0143421Y0016492D03*
D25*
X0167342Y0011492D03*
X0182342Y0011492D03*
X0198342Y0011492D03*
X0188342Y0041492D03*
X0188342Y0056492D03*
X0103342Y0011492D03*
X0103342Y0136492D03*
X0118342Y0136492D03*
X0133342Y0136492D03*
X0183342Y0136492D03*
X0198342Y0136492D03*
D26*
X0168842Y0123992D03*
X0153342Y0134492D03*
X0141342Y0100492D03*
X0141842Y0084992D03*
X0147842Y0084992D03*
X0160842Y0082992D03*
X0177342Y0086992D03*
X0159342Y0063992D03*
X0169842Y0052492D03*
X0140342Y0070992D03*
X0123342Y0066992D03*
X0137842Y0028492D03*
X0161342Y0019992D03*
D27*
X0129842Y0039992D03*
X0141342Y0045492D03*
X0127842Y0050492D03*
X0144842Y0063992D03*
X0147842Y0066992D03*
X0173342Y0062992D03*
X0182342Y0066492D03*
X0183842Y0076492D03*
X0179842Y0080992D03*
X0199842Y0070492D03*
X0199842Y0062492D03*
X0202342Y0056492D03*
X0166342Y0099992D03*
X0160842Y0099992D03*
X0184342Y0107492D03*
X0201842Y0107492D03*
X0119842Y0070992D03*
M02*
